<svg xmlns="http://www.w3.org/2000/svg" xmlns:xlink="http://www.w3.org/1999/xlink" width="42" height="49" viewBox="0 0 42 49"><defs><path id="fkcza" d="M1167.33 1003.93c.262.48.093 1.086-.38 1.356-.127.073-3.19 1.897-3.19 5.714 0 .552-.442 1-.988 1h-5.544a.994.994 0 0 1-.988-1c0-3.817-3.063-5.64-3.193-5.716a1.01 1.01 0 0 1-.376-1.354l6.464-11.816c.001-.001.249-.519.865-.519s.867.52.867.52l6.463 11.815zm-2.161.18l-4.18-7.643v4.106c0 .552-.443 1-.989 1a.994.994 0 0 1-.988-1v-4.106l-4.18 7.643c1.106.883 2.985 2.807 3.33 5.89h3.677c.344-3.083 2.223-5.007 3.33-5.89zM1181 964v4.186c0 .552-.443 1-.988 1h-1.327a19.313 19.313 0 0 1-5.168 10.319 18.996 18.996 0 0 1-5.102 3.744h6.806a1.669 1.669 0 0 1 1.356-.7c.927 0 1.679.761 1.679 1.7 0 .938-.752 1.698-1.68 1.698a1.67 1.67 0 0 1-1.355-.698h-12.164v1.093c0 .552-.443 1-.989 1h-4.137a.994.994 0 0 1-.988-1v-1.093h-12.164a1.67 1.67 0 0 1-1.356.698 1.69 1.69 0 0 1-1.679-1.698c0-.939.752-1.7 1.68-1.7.557 0 1.049.276 1.355.7h6.805a19.003 19.003 0 0 1-5.091-3.734 19.312 19.312 0 0 1-5.178-10.33h-1.327a.994.994 0 0 1-.988-1V964c0-.552.443-1 .988-1h4.137c.546 0 .988.448.988 1v4.186c0 .552-.442 1-.988 1h-.806c1.256 7.01 6.675 12.509 13.624 13.784v-.814c0-.552.443-1 .988-1h4.137c.546 0 .989.448.989 1v.814c6.948-1.275 12.368-6.777 13.623-13.784h-.805a.994.994 0 0 1-.988-1V964c0-.552.442-1 .988-1h4.137c.545 0 .988.448.988 1zm-40.023 3.186h2.16V965h-2.16zm20.103 18.156v-2.186h-2.16v2.186zM1179.023 965h-2.16v2.186h2.16z"/></defs><g><g transform="translate(-1139 -963)"><use xlink:href="#fkcza"/><use fill="#0095ff" xlink:href="#fkcza"/></g></g></svg>