<svg xmlns="http://www.w3.org/2000/svg" xmlns:xlink="http://www.w3.org/1999/xlink" width="43" height="34" viewBox="0 0 43 34"><defs><path id="vlwsa" d="M534.872 973.815a.645.645 0 0 1 0-.903.628.628 0 0 1 1.077.451.645.645 0 0 1-.185.452.63.63 0 0 1-.446.188.63.63 0 0 1-.446-.188zm2.02 0a.646.646 0 0 1 0-.903.63.63 0 0 1 .446-.188.63.63 0 0 1 .446.188.645.645 0 0 1 0 .903.628.628 0 0 1-.892 0zm2.02 0a.645.645 0 0 1 0-.903.63.63 0 0 1 .446-.188.63.63 0 0 1 .447.188.645.645 0 0 1 0 .903.63.63 0 0 1-.447.188.63.63 0 0 1-.446-.188zm2.509-.452c0-.353.282-.639.631-.639h25.59c.348 0 .63.287.63.64 0 .353-.282.639-.63.639h-25.59a.635.635 0 0 1-.631-.64zm28.283 0c0-.353.282-.639.631-.639h1.347c.349 0 .631.287.631.64 0 .353-.282.639-.631.639h-1.347a.635.635 0 0 1-.631-.64zm1.262 8.182v1.364c0 1.104-.887 2.003-1.978 2.003h-12.121c-1.09 0-1.978-.899-1.978-2.003v-.043h-.716a.72.72 0 0 0-.715.725v5.497h1.43v-.043c0-1.104.888-2.002 1.979-2.002h12.121c1.091 0 1.978.898 1.978 2.002v1.364c0 1.105-.887 2.003-1.978 2.003h-12.121c-1.09 0-1.978-.898-1.978-2.003v-.042h-1.431v5.497c0 .4.32.724.715.724h.716v-.042c0-1.105.887-2.003 1.978-2.003h12.121c1.091 0 1.978.898 1.978 2.003v1.363c0 1.105-.887 2.003-1.978 2.003h-12.121c-1.09 0-1.978-.898-1.978-2.003v-.043h-.716c-1.09 0-1.978-.898-1.978-2.002v-5.497h-1.43v2.088c0 1.104-.888 2.002-1.979 2.002h-10.774c-1.091 0-1.978-.898-1.978-2.002V987c0-1.104.887-2.003 1.978-2.003h10.774c1.09 0 1.978.899 1.978 2.003v2.088h1.431v-5.497c0-1.105.888-2.003 1.978-2.003h.716v-.043c0-1.104.887-2.003 1.978-2.003h12.121c1.091 0 1.978.899 1.978 2.003zM549.502 987a.72.72 0 0 0-.716-.724h-10.774a.72.72 0 0 0-.716.724v5.455c0 .4.321.724.716.724h10.774a.72.72 0 0 0 .716-.724zm6.65 10.91c0 .399.32.724.715.724h12.121a.72.72 0 0 0 .716-.725v-1.363a.72.72 0 0 0-.716-.725h-12.121a.72.72 0 0 0-.715.725zm0-7.5c0 .399.32.724.715.724h12.121a.72.72 0 0 0 .716-.725v-1.364a.72.72 0 0 0-.716-.724h-12.121a.72.72 0 0 0-.715.724zm13.552-8.865a.72.72 0 0 0-.716-.724h-12.121a.72.72 0 0 0-.715.724v1.364c0 .4.32.724.715.724h12.121a.72.72 0 0 0 .716-.724zm5.303-8.182v27.274c0 1.856-1.492 3.366-3.325 3.366h-36.364c-1.833 0-3.325-1.51-3.325-3.366v-27.274c0-1.856 1.492-3.366 3.325-3.366h36.364c1.833 0 3.325 1.51 3.325 3.366zm-41.751 0v2.089h40.488v-2.089c0-1.15-.925-2.088-2.062-2.088h-36.364c-1.137 0-2.062.937-2.062 2.088zm40.488 27.274V976.73h-40.488v23.907c0 1.151.925 2.087 2.062 2.087h36.364c1.137 0 2.062-.936 2.062-2.087z"/></defs><g><g transform="translate(-532 -970)"><use xlink:href="#vlwsa"/><use fill="#0095ff" xlink:href="#vlwsa"/></g></g></svg>